<svg version="1.1" id="Layer_1" xmlns="http://www.w3.org/2000/svg" xmlns:xlink="http://www.w3.org/1999/xlink" x="0px" y="0px"
	 width="95px" height="90.5px" viewBox="3 31 95 90.5" enable-background="new 3 31 95 90.5" xml:space="preserve">
<g>
	<path d="M94,82.983L98,77l-5.655-3.064l-2.017-5.396c-5.227-3.703-11.518-6.015-17.23-8.881c-4.047-2.031-8.242-4.455-12.881-4.638
		c-4.547-0.179-9.115,0.845-13.687,0.832c-4.545-0.014-9.225-0.322-13.687-0.177c-5.135,0.167-11.586,0.927-15.257,4.951
		C11.58,67.211,3,97,3,97l10,6l2-3l-2.952-3.445l12.727-7.944L34,103h11l19.071-14.362L77,103h11v-3l-4-1l-6-8v-9L94,82.983z
		 M42.712,98.97l-4.208-4.532v-9.226h10.925L42.712,98.97z"/>
</g>
</svg>
