<svg version="1.1" id="Layer_1" xmlns="http://www.w3.org/2000/svg" xmlns:xlink="http://www.w3.org/1999/xlink" x="0px" y="0px"
	 width="95px" height="102.935px" viewBox="2.501 -1.468 95 102.935" enable-background="new 2.501 -1.468 95 102.935"
	 xml:space="preserve">
<g>
	<path d="M83.601,20.359c-1.124-1.122-2.322-2.202-3.555-3.212l-5.1,6.241c1.031,0.839,2.026,1.742,2.962,2.672
		c15.384,15.388,15.384,40.428,0,55.815c-15.391,15.387-40.424,15.387-55.815,0C6.708,66.489,6.708,41.449,22.09,26.064
		c0.91-0.91,1.873-1.781,2.86-2.591l-5.112-6.229c-1.188,0.976-2.344,2.025-3.441,3.12c-18.529,18.53-18.529,48.678,0,67.208
		c9.266,9.265,21.435,13.896,33.604,13.896s24.339-4.631,33.604-13.896C102.133,69.041,102.133,38.893,83.601,20.359z"/>
	<rect x="45.523" y="-1.468" width="8.058" height="42.072"/>
</g>
</svg>
